# xmcd
#
# Track frame offsets:
#	225
#	16424
#	28560
#	46021
#	62979
#	81161
#	101301
#	133212
#	162537
#	182065
#	211284
#	232686
#	266877
#	295468
#
# Disc length: 4196 seconds
#
# Revision: 0
# Processed by: cddbd v1.4PL0 Copyright (c) Steve Scherf et al.
# Submitted via: EasyCDDAExtractor 4.6.9.1
#
DISCID=c410610e
DTITLE=Various Artist - BLUES.LV
DYEAR=2003
DGENRE=Blues
TTITLE0=Summertime - Mirta and Hot Acoustics
TTITLE1=How Long, How Long Blues - Mirta and Hot Acoustics
TTITLE2=Spoonful - Mirta and Hot Acoustics
TTITLE3=Gulf Coast Blues - Mirta and Hot Acoustics
TTITLE4=You Can't Get That Stuff No More - Mirta and Hot Acoustics
TTITLE5=Fortress - Fortress
TTITLE6=May I Have A Talk With You - Fortress
TTITLE7=Hoochie Kochie Man  - Fortress
TTITLE8=Hub You Squeeze You - Fortress
TTITLE9=Martha - Driving South
TTITLE10=Corrina  - Driving South
TTITLE11=Mercy Right On Time - Driving South
TTITLE12=Troubles No More - Driving South
TTITLE13=Honey Hush - Driving South
EXTD=Ripped by Delta for [DML] archive.\nPresentation CDs.\n2003FRI24012003\nL
EXTD=ive session 4 of may 2002, Riga.\n
EXTT0=
EXTT1=
EXTT2=
EXTT3=
EXTT4=
EXTT5=
EXTT6=
EXTT7=
EXTT8=
EXTT9=
EXTT10=
EXTT11=
EXTT12=
EXTT13=
PLAYORDER=
